<?xml version="1.0" encoding="UTF-8" standalone="no"?>
<!DOCTYPE svg PUBLIC "-//W3C//DTD SVG 1.1//EN" "http://www.w3.org/Graphics/SVG/1.1/DTD/svg11.dtd">
<svg width="100%" height="100%" viewBox="0 0 272 151" version="1.1" xmlns="http://www.w3.org/2000/svg" xmlns:xlink="http://www.w3.org/1999/xlink" xml:space="preserve" xmlns:serif="http://www.serif.com/" style="fill-rule:evenodd;clip-rule:evenodd;">
    <g id="Group_179" transform="matrix(1,0,0,1,-5655.23,591)">
        <g id="Group_178">
            <g id="Group_176">
                <g id="Group_175">
                    <g id="Group_174">
                        <g id="Polygon_4" transform="matrix(1,0,0,1,5734,-575)">
                            <path d="M94.051,103.5L31.949,103.5C28.703,103.5 25.561,102.632 22.865,100.99C20.319,99.44 18.188,97.227 16.702,94.59C15.216,91.953 14.428,88.984 14.421,86.003C14.414,82.846 15.299,79.709 16.981,76.933L48.032,25.674C49.679,22.955 51.897,20.827 54.624,19.349C57.169,17.97 60.065,17.241 63,17.241C65.935,17.241 68.831,17.97 71.376,19.349C74.103,20.827 76.321,22.955 77.968,25.674L109.019,76.933C110.701,79.709 111.586,82.846 111.579,86.003C111.572,88.984 110.784,91.953 109.298,94.59C107.812,97.227 105.681,99.44 103.135,100.99C100.439,102.632 97.297,103.5 94.051,103.5Z" style="fill:white;fill-rule:nonzero;"/>
                            <path d="M63,17.741C60.148,17.741 57.334,18.449 54.862,19.789C52.214,21.224 50.06,23.291 48.46,25.933L17.409,77.192C15.774,79.89 14.914,82.936 14.921,86.002C14.927,88.897 15.694,91.782 17.138,94.345C18.582,96.907 20.652,99.058 23.125,100.563C25.743,102.157 28.795,103 31.949,103L94.051,103C97.205,103 100.257,102.157 102.875,100.563C105.348,99.058 107.418,96.907 108.862,94.345C110.306,91.782 111.073,88.897 111.079,86.002C111.086,82.936 110.226,79.89 108.591,77.192L77.54,25.933C75.94,23.291 73.786,21.224 71.138,19.789C68.666,18.449 65.852,17.741 63,17.741M63,16.741C68.946,16.741 74.893,19.632 78.396,25.415L109.447,76.674C116.713,88.67 108.076,104 94.051,104L31.949,104C17.924,104 9.287,88.67 16.553,76.674L47.604,25.415C51.107,19.632 57.054,16.741 63,16.741Z" style="fill:rgb(112,112,112);fill-rule:nonzero;"/>
                        </g>
                        <g id="logo" transform="matrix(1,0,0,1,5777,-499)">
                            <g transform="matrix(20,0,0,20,0,0)">
                                <rect x="0.081" y="-0.74" width="0.08" height="0.74" style="fill:rgb(112,112,112);fill-rule:nonzero;"/>
                            </g>
                            <g transform="matrix(20,0,0,20,4.84375,0)">
                                <path d="M0.29,0.012C0.216,0.012 0.157,-0.012 0.113,-0.058C0.069,-0.105 0.047,-0.167 0.047,-0.244C0.047,-0.328 0.07,-0.394 0.116,-0.441C0.162,-0.488 0.224,-0.512 0.302,-0.512C0.376,-0.512 0.434,-0.489 0.476,-0.443C0.518,-0.397 0.539,-0.333 0.539,-0.252C0.539,-0.172 0.517,-0.108 0.471,-0.06C0.426,-0.012 0.366,0.012 0.29,0.012ZM0.296,-0.444C0.244,-0.444 0.204,-0.427 0.174,-0.392C0.144,-0.357 0.129,-0.309 0.129,-0.247C0.129,-0.188 0.144,-0.141 0.174,-0.107C0.205,-0.073 0.245,-0.056 0.296,-0.056C0.348,-0.056 0.387,-0.072 0.415,-0.106C0.443,-0.139 0.457,-0.187 0.457,-0.249C0.457,-0.312 0.443,-0.36 0.415,-0.394C0.387,-0.427 0.348,-0.444 0.296,-0.444Z" style="fill:rgb(112,112,112);fill-rule:nonzero;"/>
                            </g>
                            <g transform="matrix(20,0,0,20,16.5625,0)">
                                <path d="M0.508,-0.04C0.508,0.144 0.42,0.235 0.244,0.235C0.182,0.235 0.128,0.224 0.082,0.2L0.082,0.12C0.138,0.151 0.192,0.167 0.243,0.167C0.366,0.167 0.428,0.102 0.428,-0.029L0.428,-0.084L0.426,-0.084C0.388,-0.02 0.33,0.012 0.254,0.012C0.192,0.012 0.142,-0.01 0.104,-0.055C0.066,-0.099 0.047,-0.159 0.047,-0.234C0.047,-0.319 0.067,-0.386 0.108,-0.437C0.149,-0.487 0.205,-0.512 0.276,-0.512C0.343,-0.512 0.393,-0.485 0.426,-0.431L0.428,-0.431L0.428,-0.5L0.508,-0.5L0.508,-0.04ZM0.428,-0.226L0.428,-0.3C0.428,-0.34 0.414,-0.374 0.387,-0.402C0.361,-0.43 0.327,-0.444 0.287,-0.444C0.238,-0.444 0.199,-0.426 0.171,-0.39C0.143,-0.354 0.129,-0.304 0.129,-0.239C0.129,-0.184 0.142,-0.139 0.169,-0.106C0.196,-0.072 0.232,-0.056 0.276,-0.056C0.321,-0.056 0.357,-0.072 0.385,-0.104C0.414,-0.135 0.428,-0.176 0.428,-0.226Z" style="fill:rgb(112,112,112);fill-rule:nonzero;"/>
                            </g>
                            <g transform="matrix(20,0,0,20,28.3398,0)">
                                <path d="M0.29,0.012C0.216,0.012 0.157,-0.012 0.113,-0.058C0.069,-0.105 0.047,-0.167 0.047,-0.244C0.047,-0.328 0.07,-0.394 0.116,-0.441C0.162,-0.488 0.224,-0.512 0.302,-0.512C0.376,-0.512 0.434,-0.489 0.476,-0.443C0.518,-0.397 0.539,-0.333 0.539,-0.252C0.539,-0.172 0.517,-0.108 0.471,-0.06C0.426,-0.012 0.366,0.012 0.29,0.012ZM0.296,-0.444C0.244,-0.444 0.204,-0.427 0.174,-0.392C0.144,-0.357 0.129,-0.309 0.129,-0.247C0.129,-0.188 0.144,-0.141 0.174,-0.107C0.205,-0.073 0.245,-0.056 0.296,-0.056C0.348,-0.056 0.387,-0.072 0.415,-0.106C0.443,-0.139 0.457,-0.187 0.457,-0.249C0.457,-0.312 0.443,-0.36 0.415,-0.394C0.387,-0.427 0.348,-0.444 0.296,-0.444Z" style="fill:rgb(112,112,112);fill-rule:nonzero;"/>
                            </g>
                        </g>
                        <g id="Ellipse_36" transform="matrix(1,0,0,1,5725,-591)">
                            <circle cx="75.5" cy="75.5" r="75.5" style="fill:white;"/>
                        </g>
                        <g id="Facingo" transform="matrix(1,0,0,1,5662,-492)">
                            <g transform="matrix(80,0,0,80,0,0)">
                                <path d="M0.648,-0.367L0.724,-0.367C0.76,-0.367 0.778,-0.351 0.778,-0.32C0.778,-0.3 0.771,-0.284 0.756,-0.27C0.741,-0.257 0.723,-0.25 0.701,-0.25L0.601,-0.25L0.506,-0.016C0.44,0.145 0.343,0.226 0.214,0.226C0.146,0.226 0.091,0.204 0.046,0.161C0.002,0.117 -0.02,0.063 -0.02,-0.003C-0.02,-0.055 -0.007,-0.104 0.019,-0.151C0.045,-0.198 0.082,-0.238 0.129,-0.272C0.169,-0.3 0.216,-0.323 0.269,-0.339C0.323,-0.356 0.375,-0.364 0.427,-0.364L0.496,-0.366L0.517,-0.367L0.611,-0.603L0.616,-0.616C0.624,-0.636 0.633,-0.65 0.645,-0.656C0.656,-0.663 0.676,-0.667 0.703,-0.667L0.954,-0.667C0.999,-0.667 1.021,-0.651 1.021,-0.619C1.021,-0.6 1.014,-0.584 0.999,-0.57C0.984,-0.557 0.966,-0.55 0.944,-0.55L0.723,-0.55L0.648,-0.367ZM0.47,-0.25L0.443,-0.25C0.347,-0.25 0.27,-0.228 0.212,-0.184C0.148,-0.135 0.116,-0.079 0.116,-0.018C0.116,0.016 0.126,0.043 0.146,0.066C0.167,0.088 0.192,0.1 0.222,0.1C0.292,0.1 0.35,0.044 0.396,-0.068L0.47,-0.25Z" style="fill-rule:nonzero;"/>
                            </g>
                            <g transform="matrix(80,0,0,80,65.1172,0)">
                                <path d="M0.379,-0.106L0.433,-0.106C0.474,-0.106 0.495,-0.092 0.495,-0.063C0.495,-0.044 0.487,-0.028 0.473,-0.017C0.458,-0.006 0.438,0 0.412,0L0.35,0C0.322,0 0.303,-0.011 0.292,-0.033C0.268,-0.011 0.244,0 0.222,0L0.166,0C0.13,0 0.101,-0.013 0.079,-0.038C0.057,-0.064 0.046,-0.097 0.046,-0.139C0.046,-0.201 0.068,-0.257 0.111,-0.306C0.154,-0.356 0.203,-0.38 0.257,-0.38C0.299,-0.38 0.329,-0.366 0.349,-0.337C0.365,-0.361 0.386,-0.374 0.413,-0.374C0.427,-0.374 0.439,-0.369 0.448,-0.36C0.458,-0.351 0.463,-0.34 0.463,-0.326C0.463,-0.317 0.46,-0.306 0.455,-0.293L0.45,-0.28L0.379,-0.106ZM0.202,-0.104L0.214,-0.104C0.241,-0.104 0.259,-0.115 0.268,-0.137L0.302,-0.221C0.306,-0.232 0.309,-0.242 0.309,-0.249C0.309,-0.258 0.304,-0.265 0.296,-0.272C0.287,-0.278 0.277,-0.282 0.265,-0.282C0.241,-0.282 0.218,-0.268 0.195,-0.24C0.173,-0.213 0.162,-0.184 0.162,-0.154C0.162,-0.121 0.175,-0.104 0.202,-0.104Z" style="fill-rule:nonzero;"/>
                            </g>
                            <g transform="matrix(80,0,0,80,102.5,0)">
                                <path d="M0.326,0L0.184,0C0.143,0 0.11,-0.014 0.085,-0.043C0.059,-0.072 0.046,-0.109 0.046,-0.154C0.046,-0.215 0.067,-0.268 0.109,-0.313C0.151,-0.358 0.201,-0.38 0.257,-0.38C0.296,-0.38 0.327,-0.37 0.351,-0.348C0.375,-0.327 0.387,-0.299 0.387,-0.264C0.387,-0.24 0.381,-0.22 0.369,-0.205C0.357,-0.189 0.342,-0.182 0.323,-0.182C0.293,-0.182 0.278,-0.196 0.278,-0.224L0.278,-0.234C0.278,-0.238 0.278,-0.241 0.278,-0.245C0.278,-0.267 0.267,-0.279 0.245,-0.279C0.223,-0.279 0.204,-0.268 0.187,-0.245C0.169,-0.223 0.161,-0.198 0.161,-0.17C0.161,-0.147 0.168,-0.13 0.182,-0.121C0.196,-0.111 0.22,-0.106 0.254,-0.106L0.346,-0.106C0.388,-0.106 0.408,-0.092 0.408,-0.063C0.408,-0.043 0.401,-0.028 0.386,-0.017C0.371,-0.006 0.351,0 0.326,0Z" style="fill-rule:nonzero;"/>
                            </g>
                            <g transform="matrix(80,0,0,80,132.93,0)">
                                <path d="M0.182,-0.106L0.237,-0.106C0.278,-0.106 0.298,-0.092 0.298,-0.063C0.298,-0.043 0.291,-0.028 0.277,-0.017C0.262,-0.006 0.242,0 0.216,0L0.138,0C0.11,0 0.087,-0.006 0.071,-0.018C0.054,-0.029 0.046,-0.045 0.046,-0.065C0.046,-0.076 0.049,-0.09 0.056,-0.106L0.137,-0.305L0.142,-0.318C0.157,-0.355 0.181,-0.374 0.214,-0.374C0.228,-0.374 0.24,-0.369 0.25,-0.36C0.26,-0.351 0.265,-0.34 0.265,-0.327C0.265,-0.317 0.26,-0.301 0.251,-0.279L0.182,-0.106ZM0.246,-0.529C0.265,-0.529 0.281,-0.523 0.294,-0.51C0.307,-0.496 0.314,-0.48 0.314,-0.461C0.314,-0.443 0.307,-0.427 0.294,-0.413C0.281,-0.4 0.265,-0.394 0.246,-0.394C0.227,-0.394 0.211,-0.4 0.198,-0.413C0.185,-0.427 0.178,-0.443 0.178,-0.461C0.178,-0.48 0.185,-0.496 0.198,-0.51C0.211,-0.523 0.227,-0.529 0.246,-0.529Z" style="fill-rule:nonzero;"/>
                            </g>
                            <g transform="matrix(80,0,0,80,154.609,0)">
                                <path d="M0.408,-0.106L0.466,-0.106C0.508,-0.106 0.528,-0.092 0.528,-0.063C0.528,-0.043 0.521,-0.028 0.506,-0.017C0.492,-0.006 0.472,0 0.446,0L0.344,0C0.324,0 0.307,-0.006 0.294,-0.018C0.28,-0.03 0.273,-0.045 0.273,-0.063C0.273,-0.075 0.278,-0.091 0.287,-0.113L0.33,-0.22C0.335,-0.231 0.337,-0.24 0.337,-0.247C0.338,-0.254 0.335,-0.261 0.328,-0.267C0.321,-0.272 0.313,-0.275 0.302,-0.275C0.269,-0.275 0.242,-0.25 0.221,-0.199L0.164,-0.058C0.146,-0.015 0.121,0.007 0.086,0.007C0.072,0.007 0.061,0.003 0.051,-0.006C0.041,-0.014 0.036,-0.025 0.036,-0.037C0.036,-0.046 0.039,-0.057 0.044,-0.07L0.049,-0.083L0.148,-0.326C0.161,-0.358 0.182,-0.374 0.213,-0.374C0.238,-0.374 0.256,-0.362 0.267,-0.34C0.301,-0.367 0.335,-0.38 0.366,-0.38C0.397,-0.38 0.422,-0.372 0.442,-0.354C0.462,-0.336 0.472,-0.314 0.472,-0.287C0.472,-0.272 0.468,-0.256 0.461,-0.238L0.408,-0.106Z" style="fill-rule:nonzero;"/>
                            </g>
                            <g transform="matrix(80,0,0,80,194.648,0)">
                                <path d="M0.333,0.014L0.392,0.014C0.433,0.014 0.454,0.028 0.454,0.057C0.454,0.076 0.447,0.092 0.432,0.103C0.417,0.115 0.397,0.12 0.372,0.12L0.291,0.12L0.27,0.17C0.22,0.292 0.147,0.354 0.052,0.354C0.002,0.354 -0.04,0.338 -0.073,0.307C-0.107,0.276 -0.124,0.237 -0.124,0.191C-0.124,0.161 -0.115,0.132 -0.099,0.106C-0.083,0.079 -0.061,0.058 -0.033,0.042C0.001,0.023 0.048,0.014 0.106,0.014L0.211,0.014L0.226,-0.024C0.206,-0.012 0.186,-0.006 0.168,-0.006C0.133,-0.006 0.105,-0.018 0.083,-0.042C0.062,-0.066 0.051,-0.097 0.051,-0.136C0.051,-0.199 0.073,-0.255 0.117,-0.305C0.161,-0.355 0.21,-0.38 0.265,-0.38C0.305,-0.38 0.335,-0.367 0.354,-0.341C0.37,-0.367 0.391,-0.38 0.419,-0.38C0.433,-0.38 0.445,-0.376 0.454,-0.367C0.464,-0.358 0.469,-0.347 0.469,-0.334C0.469,-0.324 0.465,-0.309 0.456,-0.288L0.333,0.014ZM0.27,-0.133L0.31,-0.229C0.313,-0.238 0.314,-0.244 0.314,-0.25C0.314,-0.259 0.31,-0.267 0.302,-0.274C0.293,-0.28 0.282,-0.284 0.269,-0.284C0.246,-0.284 0.223,-0.27 0.202,-0.243C0.181,-0.217 0.17,-0.188 0.17,-0.158C0.17,-0.124 0.186,-0.107 0.218,-0.107C0.245,-0.107 0.263,-0.116 0.27,-0.133ZM0.167,0.12L0.083,0.12C0.054,0.12 0.031,0.126 0.015,0.139C-0.001,0.151 -0.009,0.168 -0.009,0.191C-0.009,0.206 -0.004,0.219 0.007,0.23C0.018,0.241 0.032,0.246 0.048,0.246C0.072,0.246 0.092,0.237 0.11,0.218C0.127,0.2 0.147,0.167 0.167,0.12Z" style="fill-rule:nonzero;"/>
                            </g>
                            <g transform="matrix(80,0,0,80,229.492,0)">
                                <path d="M0.272,-0.38C0.319,-0.38 0.358,-0.365 0.388,-0.335C0.419,-0.306 0.434,-0.267 0.434,-0.221C0.434,-0.186 0.426,-0.152 0.41,-0.117C0.394,-0.083 0.374,-0.056 0.348,-0.035C0.331,-0.022 0.314,-0.013 0.296,-0.008C0.278,-0.003 0.252,0 0.22,0C0.167,0 0.131,-0.006 0.112,-0.019C0.069,-0.049 0.047,-0.093 0.047,-0.152C0.047,-0.214 0.069,-0.267 0.114,-0.313C0.158,-0.358 0.211,-0.38 0.272,-0.38ZM0.26,-0.276C0.236,-0.276 0.214,-0.264 0.194,-0.241C0.174,-0.217 0.165,-0.191 0.165,-0.162C0.165,-0.124 0.186,-0.105 0.228,-0.105C0.253,-0.105 0.272,-0.113 0.285,-0.128C0.307,-0.153 0.318,-0.182 0.318,-0.214C0.318,-0.233 0.313,-0.248 0.302,-0.259C0.292,-0.271 0.278,-0.276 0.26,-0.276Z" style="fill-rule:nonzero;"/>
                            </g>
                        </g>
                        <g transform="matrix(1,0,0,1,5604,-627)">
                            <g id="Group_173">
                                <g id="Group_166">
                                    <g id="acingo" transform="matrix(1,0,0,1,121,129)">
                                        <path d="M30.352,-8.516L34.648,-8.516C37.93,-8.516 39.57,-7.37 39.57,-5.078C39.57,-3.49 38.984,-2.246 37.813,-1.348C36.641,-0.449 35.026,0 32.969,0L27.969,0C25.729,0 24.206,-0.872 23.398,-2.617C21.445,-0.872 19.557,0 17.734,0L13.281,0C10.417,0 8.105,-1.022 6.348,-3.066C4.59,-5.111 3.711,-7.786 3.711,-11.094C3.711,-16.094 5.436,-20.566 8.887,-24.512C12.337,-28.457 16.237,-30.43 20.586,-30.43C23.919,-30.43 26.354,-29.271 27.891,-26.953C29.193,-28.906 30.898,-29.883 33.008,-29.883C34.154,-29.883 35.111,-29.518 35.879,-28.789C36.647,-28.06 37.031,-27.161 37.031,-26.094C37.031,-25.365 36.823,-24.492 36.406,-23.477L35.977,-22.422L30.352,-8.516ZM16.172,-8.32L17.148,-8.32C19.284,-8.32 20.703,-9.193 21.406,-10.938L24.141,-17.695C24.505,-18.581 24.688,-19.323 24.688,-19.922C24.688,-20.625 24.342,-21.237 23.652,-21.758C22.962,-22.279 22.135,-22.539 21.172,-22.539C19.271,-22.539 17.422,-21.432 15.625,-19.219C13.828,-17.005 12.93,-14.714 12.93,-12.344C12.93,-9.661 14.01,-8.32 16.172,-8.32Z" style="fill:white;fill-rule:nonzero;stroke:rgb(14,15,59);stroke-width:2px;"/>
                                        <path d="M63.438,0L52.109,0C48.854,0 46.204,-1.146 44.16,-3.438C42.116,-5.729 41.094,-8.698 41.094,-12.344C41.094,-17.214 42.773,-21.445 46.133,-25.039C49.492,-28.633 53.438,-30.43 57.969,-30.43C61.042,-30.43 63.542,-29.57 65.469,-27.852C67.396,-26.133 68.359,-23.893 68.359,-21.133C68.359,-19.206 67.878,-17.624 66.914,-16.387C65.951,-15.15 64.714,-14.531 63.203,-14.531C60.807,-14.531 59.609,-15.651 59.609,-17.891L59.609,-18.75C59.635,-19.036 59.648,-19.31 59.648,-19.57C59.648,-21.393 58.75,-22.305 56.953,-22.305C55.26,-22.305 53.717,-21.406 52.324,-19.609C50.931,-17.813 50.234,-15.807 50.234,-13.594C50.234,-11.745 50.801,-10.436 51.934,-9.668C53.066,-8.9 54.987,-8.516 57.695,-8.516L65.078,-8.516C68.385,-8.516 70.039,-7.357 70.039,-5.039C70.039,-3.477 69.447,-2.246 68.262,-1.348C67.077,-0.449 65.469,0 63.438,0Z" style="fill:white;fill-rule:nonzero;stroke:rgb(14,15,59);stroke-width:2px;"/>
                                        <path d="M82.344,-8.516L86.758,-8.516C90.039,-8.516 91.68,-7.357 91.68,-5.039C91.68,-3.451 91.1,-2.214 89.941,-1.328C88.783,-0.443 87.161,0 85.078,0L78.867,0C76.576,0 74.772,-0.469 73.457,-1.406C72.142,-2.344 71.484,-3.62 71.484,-5.234C71.484,-6.094 71.758,-7.188 72.305,-8.516L78.75,-24.375L79.18,-25.469C80.378,-28.411 82.305,-29.883 84.961,-29.883C86.055,-29.883 86.999,-29.518 87.793,-28.789C88.587,-28.06 88.984,-27.188 88.984,-26.172C88.984,-25.339 88.633,-24.063 87.93,-22.344L82.344,-8.516ZM87.5,-42.344C89.01,-42.344 90.293,-41.816 91.348,-40.762C92.402,-39.707 92.93,-38.424 92.93,-36.914C92.93,-35.404 92.402,-34.121 91.348,-33.066C90.293,-32.012 89.01,-31.484 87.5,-31.484C85.99,-31.484 84.707,-32.012 83.652,-33.066C82.598,-34.121 82.07,-35.404 82.07,-36.914C82.07,-38.424 82.598,-39.707 83.652,-40.762C84.707,-41.816 85.99,-42.344 87.5,-42.344Z" style="fill:white;fill-rule:nonzero;stroke:rgb(14,15,59);stroke-width:2px;"/>
                                        <path d="M122.109,-8.516L126.797,-8.516C130.104,-8.516 131.758,-7.357 131.758,-5.039C131.758,-3.451 131.172,-2.214 130,-1.328C128.828,-0.443 127.214,0 125.156,0L116.992,0C115.404,0 114.069,-0.482 112.988,-1.445C111.908,-2.409 111.367,-3.62 111.367,-5.078C111.367,-5.964 111.732,-7.292 112.461,-9.063L115.898,-17.578C116.263,-18.464 116.458,-19.18 116.484,-19.727C116.51,-20.352 116.257,-20.885 115.723,-21.328C115.189,-21.771 114.505,-21.992 113.672,-21.992C110.99,-21.992 108.828,-19.974 107.188,-15.938L102.578,-4.609C101.198,-1.172 99.141,0.547 96.406,0.547C95.286,0.547 94.336,0.208 93.555,-0.469C92.773,-1.146 92.383,-1.979 92.383,-2.969C92.383,-3.698 92.591,-4.57 93.008,-5.586L93.438,-6.641L101.328,-26.094C102.344,-28.62 104.076,-29.883 106.523,-29.883C108.529,-29.883 109.961,-28.997 110.82,-27.227C113.607,-29.362 116.263,-30.43 118.789,-30.43C121.237,-30.43 123.255,-29.727 124.844,-28.32C126.432,-26.914 127.227,-25.13 127.227,-22.969C127.227,-21.771 126.94,-20.456 126.367,-19.023L122.109,-8.516Z" style="fill:white;fill-rule:nonzero;stroke:rgb(14,15,59);stroke-width:2px;"/>
                                        <path d="M156.211,1.094L160.898,1.094C164.206,1.094 165.859,2.24 165.859,4.531C165.859,6.12 165.273,7.363 164.102,8.262C162.93,9.16 161.315,9.609 159.258,9.609L152.773,9.609L151.133,13.633C147.148,23.398 141.328,28.281 133.672,28.281C129.661,28.281 126.322,27.044 123.652,24.57C120.983,22.096 119.648,18.997 119.648,15.273C119.648,12.852 120.293,10.579 121.582,8.457C122.871,6.335 124.635,4.648 126.875,3.398C129.635,1.862 133.346,1.094 138.008,1.094L146.406,1.094L147.617,-1.953C145.977,-0.964 144.427,-0.469 142.969,-0.469C140.182,-0.469 137.923,-1.432 136.191,-3.359C134.46,-5.286 133.594,-7.799 133.594,-10.898C133.594,-15.898 135.352,-20.404 138.867,-24.414C142.383,-28.424 146.328,-30.43 150.703,-30.43C153.906,-30.43 156.302,-29.388 157.891,-27.305C159.115,-29.388 160.846,-30.43 163.086,-30.43C164.18,-30.43 165.111,-30.072 165.879,-29.355C166.647,-28.639 167.031,-27.773 167.031,-26.758C167.031,-25.951 166.693,-24.714 166.016,-23.047L156.211,1.094ZM151.133,-10.625L154.297,-18.359C154.557,-19.01 154.688,-19.544 154.688,-19.961C154.688,-20.742 154.342,-21.393 153.652,-21.914C152.962,-22.435 152.096,-22.695 151.055,-22.695C149.18,-22.695 147.389,-21.621 145.684,-19.473C143.978,-17.324 143.125,-15.052 143.125,-12.656C143.125,-9.922 144.401,-8.555 146.953,-8.555C149.167,-8.555 150.56,-9.245 151.133,-10.625ZM142.93,9.609L136.172,9.609C133.828,9.609 132.012,10.104 130.723,11.094C129.434,12.083 128.789,13.477 128.789,15.273C128.789,16.497 129.232,17.539 130.117,18.398C131.003,19.258 132.096,19.687 133.398,19.688C135.273,19.687 136.914,18.945 138.32,17.461C139.727,15.977 141.263,13.359 142.93,9.609Z" style="fill:white;fill-rule:nonzero;stroke:rgb(14,15,59);stroke-width:2px;"/>
                                        <path d="M186.133,-30.43C189.909,-30.43 193.014,-29.232 195.449,-26.836C197.884,-24.44 199.102,-21.393 199.102,-17.695C199.102,-14.909 198.464,-12.142 197.188,-9.395C195.911,-6.647 194.258,-4.453 192.227,-2.813C190.872,-1.745 189.473,-1.009 188.027,-0.605C186.582,-0.202 184.557,0 181.953,0C177.708,0 174.844,-0.508 173.359,-1.523C169.87,-3.919 168.125,-7.461 168.125,-12.148C168.125,-17.096 169.909,-21.38 173.477,-25C177.044,-28.62 181.263,-30.43 186.133,-30.43ZM185.195,-22.109C183.268,-22.109 181.51,-21.159 179.922,-19.258C178.333,-17.357 177.539,-15.26 177.539,-12.969C177.539,-9.948 179.232,-8.438 182.617,-8.438C184.596,-8.438 186.12,-9.049 187.188,-10.273C188.958,-12.279 189.844,-14.57 189.844,-17.148C189.844,-18.633 189.414,-19.831 188.555,-20.742C187.695,-21.654 186.576,-22.109 185.195,-22.109Z" style="fill:white;fill-rule:nonzero;stroke:rgb(14,15,59);stroke-width:2px;"/>
                                    </g>
                                    <g id="Subtraction_6" transform="matrix(1,0,0,1,-542.774,-1771.27)">
                                        <path d="M618.551,1918.23C616.031,1918.23 613.528,1917.82 611.138,1917.02C609.232,1916.43 607.463,1915.47 605.938,1914.18C603.751,1911.92 602.083,1909.21 601.049,1906.24C600.45,1904.68 599.963,1903.09 599.593,1901.46C600.982,1901.35 602.312,1900.85 603.437,1900.03C604.454,1898.99 605.107,1897.64 605.297,1896.19L599.113,1896.19L599.113,1891.27L595,1891.27L599.114,1875.1C599.43,1873.51 599.943,1871.97 600.641,1870.51C601.3,1869.09 602.136,1867.76 603.13,1866.55C604.287,1865.14 605.695,1863.95 607.283,1863.05C611.724,1860.56 615.209,1859.12 619.883,1859.12C622.07,1859.15 624.25,1859.38 626.396,1859.81C630.176,1860.63 633.677,1862.43 636.56,1865.01C638.004,1866.23 639.323,1867.59 640.498,1869.08C641.673,1870.56 640.508,1869.04 640.527,1868.99C641.156,1867.29 642.827,1862.86 644.718,1858.34C646.797,1853.36 649.568,1847.3 650.962,1846.65C651.915,1846.2 653.55,1846.01 656.262,1846.01C657.88,1846.01 659.75,1846.08 661.73,1846.15L662.23,1846.17C664.548,1846.25 666.821,1846.33 669.152,1846.33L669.747,1846.33C670.879,1846.32 671.919,1846.3 672.925,1846.28C673.875,1846.26 674.854,1846.24 675.712,1846.24C678.499,1846.24 680.429,1846.45 681.442,1847.48C682.07,1848.22 682.368,1849.18 682.266,1850.14C682.146,1855.71 676.177,1856.2 670.591,1856.23L669.921,1856.23C664.043,1856.23 658.386,1855.85 658.33,1855.84L652.551,1869.08C652.556,1869.08 652.562,1869.08 652.567,1869.08C653.834,1868.82 655.122,1868.69 656.414,1868.68C658.254,1868.68 660.733,1869.01 662.095,1870.53C662.975,1871.61 663.338,1873.03 663.086,1874.4C662.553,1879.12 657.386,1880.11 653.147,1880.11C651.537,1880.1 649.93,1879.97 648.341,1879.71L648.333,1879.73C647.979,1880.72 646.077,1885.97 643.392,1892.18C640.692,1898.42 636.638,1906.91 632.646,1911.88C630.91,1914.06 628.646,1915.76 626.07,1916.82C623.681,1917.78 621.126,1918.26 618.551,1918.23ZM637.8,1878.9C628.85,1884.95 622.433,1890.7 618.726,1896.01C615.842,1900.13 614.721,1903.93 615.568,1906.7C616.123,1908.73 617.999,1910.15 620.108,1910.12C621.793,1910.09 623.379,1909.3 624.424,1907.98C630.424,1900.69 637.724,1879.12 637.8,1878.9ZM608.77,1878.27C606.576,1878.27 604.77,1880.08 604.77,1882.27C604.77,1884.46 606.576,1886.27 608.77,1886.27C610.964,1886.27 612.77,1884.46 612.77,1882.27C612.771,1880.08 610.967,1878.27 608.773,1878.27L608.77,1878.27Z" style="fill:white;fill-rule:nonzero;stroke:rgb(14,15,59);stroke-width:2px;stroke-linejoin:round;"/>
                                    </g>
                                </g>
                            </g>
                        </g>
                    </g>
                </g>
            </g>
        </g>
    </g>
</svg>
